<mxfile host="app.diagrams.net" modified="2024-02-16T11:27:48.189Z" agent="Mozilla/5.0 (Windows NT 10.0; Win64; x64) AppleWebKit/537.36 (KHTML, like Gecko) Chrome/121.0.0.0 Safari/537.36" etag="1AMQfwbMJZuLBmswxqSY" version="23.1.5" type="device">
  <diagram id="C5RBs43oDa-KdzZeNtuy" name="Page-1">
    <mxGraphModel dx="1932" dy="1755" grid="1" gridSize="10" guides="1" tooltips="1" connect="1" arrows="1" fold="1" page="1" pageScale="1" pageWidth="827" pageHeight="1169" math="0" shadow="0">
      <root>
        <mxCell id="WIyWlLk6GJQsqaUBKTNV-0" />
        <mxCell id="WIyWlLk6GJQsqaUBKTNV-1" parent="WIyWlLk6GJQsqaUBKTNV-0" />
        <mxCell id="OHiHIztNZIgC2N3G7DZT-2" value="" style="edgeStyle=orthogonalEdgeStyle;rounded=0;orthogonalLoop=1;jettySize=auto;html=1;" parent="WIyWlLk6GJQsqaUBKTNV-1" source="OHiHIztNZIgC2N3G7DZT-0" target="OHiHIztNZIgC2N3G7DZT-1" edge="1">
          <mxGeometry relative="1" as="geometry" />
        </mxCell>
        <mxCell id="OHiHIztNZIgC2N3G7DZT-0" value="Start" style="rounded=1;whiteSpace=wrap;html=1;arcSize=50;" parent="WIyWlLk6GJQsqaUBKTNV-1" vertex="1">
          <mxGeometry x="40" y="40" width="120" height="60" as="geometry" />
        </mxCell>
        <mxCell id="OHiHIztNZIgC2N3G7DZT-4" value="" style="edgeStyle=orthogonalEdgeStyle;rounded=0;orthogonalLoop=1;jettySize=auto;html=1;" parent="WIyWlLk6GJQsqaUBKTNV-1" source="OHiHIztNZIgC2N3G7DZT-1" target="OHiHIztNZIgC2N3G7DZT-3" edge="1">
          <mxGeometry relative="1" as="geometry" />
        </mxCell>
        <mxCell id="OHiHIztNZIgC2N3G7DZT-1" value="Declare:&lt;br&gt;books list&lt;br&gt;lendBooks list&lt;br&gt;commands array&lt;br&gt;userInput&lt;br&gt;commandSplit" style="whiteSpace=wrap;html=1;rounded=1;arcSize=0;" parent="WIyWlLk6GJQsqaUBKTNV-1" vertex="1">
          <mxGeometry x="40" y="180" width="120" height="90" as="geometry" />
        </mxCell>
        <mxCell id="OHiHIztNZIgC2N3G7DZT-8" value="" style="edgeStyle=orthogonalEdgeStyle;rounded=0;orthogonalLoop=1;jettySize=auto;html=1;" parent="WIyWlLk6GJQsqaUBKTNV-1" source="OHiHIztNZIgC2N3G7DZT-3" target="OHiHIztNZIgC2N3G7DZT-7" edge="1">
          <mxGeometry relative="1" as="geometry" />
        </mxCell>
        <mxCell id="OHiHIztNZIgC2N3G7DZT-3" value="User writes in command line" style="shape=parallelogram;perimeter=parallelogramPerimeter;whiteSpace=wrap;html=1;fixedSize=1;rounded=1;arcSize=0;" parent="WIyWlLk6GJQsqaUBKTNV-1" vertex="1">
          <mxGeometry x="40" y="350" width="120" height="60" as="geometry" />
        </mxCell>
        <mxCell id="OHiHIztNZIgC2N3G7DZT-10" value="" style="edgeStyle=orthogonalEdgeStyle;rounded=0;orthogonalLoop=1;jettySize=auto;html=1;" parent="WIyWlLk6GJQsqaUBKTNV-1" source="OHiHIztNZIgC2N3G7DZT-7" target="OHiHIztNZIgC2N3G7DZT-9" edge="1">
          <mxGeometry relative="1" as="geometry" />
        </mxCell>
        <mxCell id="OHiHIztNZIgC2N3G7DZT-7" value="userInput = command line string" style="whiteSpace=wrap;html=1;rounded=1;arcSize=0;" parent="WIyWlLk6GJQsqaUBKTNV-1" vertex="1">
          <mxGeometry x="40" y="490" width="120" height="60" as="geometry" />
        </mxCell>
        <mxCell id="OHiHIztNZIgC2N3G7DZT-12" style="edgeStyle=orthogonalEdgeStyle;rounded=0;orthogonalLoop=1;jettySize=auto;html=1;exitX=1;exitY=0.5;exitDx=0;exitDy=0;entryX=1;entryY=0.5;entryDx=0;entryDy=0;" parent="WIyWlLk6GJQsqaUBKTNV-1" source="OHiHIztNZIgC2N3G7DZT-9" target="OHiHIztNZIgC2N3G7DZT-7" edge="1">
          <mxGeometry relative="1" as="geometry">
            <Array as="points">
              <mxPoint x="210" y="660" />
              <mxPoint x="210" y="520" />
            </Array>
          </mxGeometry>
        </mxCell>
        <mxCell id="OHiHIztNZIgC2N3G7DZT-13" value="False" style="edgeLabel;html=1;align=center;verticalAlign=middle;resizable=0;points=[];" parent="OHiHIztNZIgC2N3G7DZT-12" vertex="1" connectable="0">
          <mxGeometry x="-0.159" y="3" relative="1" as="geometry">
            <mxPoint as="offset" />
          </mxGeometry>
        </mxCell>
        <mxCell id="OHiHIztNZIgC2N3G7DZT-37" value="" style="edgeStyle=orthogonalEdgeStyle;rounded=0;orthogonalLoop=1;jettySize=auto;html=1;" parent="WIyWlLk6GJQsqaUBKTNV-1" source="OHiHIztNZIgC2N3G7DZT-9" target="OHiHIztNZIgC2N3G7DZT-36" edge="1">
          <mxGeometry relative="1" as="geometry" />
        </mxCell>
        <mxCell id="OHiHIztNZIgC2N3G7DZT-9" value="If first word in userInput matches with command in commands array" style="rhombus;whiteSpace=wrap;html=1;rounded=1;arcSize=0;" parent="WIyWlLk6GJQsqaUBKTNV-1" vertex="1">
          <mxGeometry x="15" y="620" width="170" height="80" as="geometry" />
        </mxCell>
        <mxCell id="OHiHIztNZIgC2N3G7DZT-20" style="edgeStyle=orthogonalEdgeStyle;rounded=0;orthogonalLoop=1;jettySize=auto;html=1;endArrow=none;endFill=0;" parent="WIyWlLk6GJQsqaUBKTNV-1" source="OHiHIztNZIgC2N3G7DZT-18" edge="1">
          <mxGeometry relative="1" as="geometry">
            <mxPoint x="210" y="660" as="targetPoint" />
          </mxGeometry>
        </mxCell>
        <mxCell id="OHiHIztNZIgC2N3G7DZT-21" value="False" style="edgeLabel;html=1;align=center;verticalAlign=middle;resizable=0;points=[];" parent="OHiHIztNZIgC2N3G7DZT-20" vertex="1" connectable="0">
          <mxGeometry x="0.2039" y="-1" relative="1" as="geometry">
            <mxPoint as="offset" />
          </mxGeometry>
        </mxCell>
        <mxCell id="OHiHIztNZIgC2N3G7DZT-40" value="" style="edgeStyle=orthogonalEdgeStyle;rounded=0;orthogonalLoop=1;jettySize=auto;html=1;" parent="WIyWlLk6GJQsqaUBKTNV-1" source="OHiHIztNZIgC2N3G7DZT-18" edge="1">
          <mxGeometry relative="1" as="geometry">
            <mxPoint x="-60" y="910" as="targetPoint" />
          </mxGeometry>
        </mxCell>
        <mxCell id="OHiHIztNZIgC2N3G7DZT-18" value="If commandSplit[0] is add" style="rhombus;whiteSpace=wrap;html=1;rounded=1;arcSize=0;" parent="WIyWlLk6GJQsqaUBKTNV-1" vertex="1">
          <mxGeometry x="35" y="870" width="130" height="80" as="geometry" />
        </mxCell>
        <mxCell id="OHiHIztNZIgC2N3G7DZT-38" style="edgeStyle=orthogonalEdgeStyle;rounded=0;orthogonalLoop=1;jettySize=auto;html=1;exitX=0.5;exitY=1;exitDx=0;exitDy=0;" parent="WIyWlLk6GJQsqaUBKTNV-1" source="OHiHIztNZIgC2N3G7DZT-36" target="OHiHIztNZIgC2N3G7DZT-18" edge="1">
          <mxGeometry relative="1" as="geometry" />
        </mxCell>
        <mxCell id="OHiHIztNZIgC2N3G7DZT-36" value="Set commandSplit to userInput split by &quot;; &quot;" style="whiteSpace=wrap;html=1;rounded=1;arcSize=0;" parent="WIyWlLk6GJQsqaUBKTNV-1" vertex="1">
          <mxGeometry x="40" y="760" width="120" height="60" as="geometry" />
        </mxCell>
        <mxCell id="OHiHIztNZIgC2N3G7DZT-55" value="" style="edgeStyle=orthogonalEdgeStyle;rounded=0;orthogonalLoop=1;jettySize=auto;html=1;" parent="WIyWlLk6GJQsqaUBKTNV-1" source="OHiHIztNZIgC2N3G7DZT-52" target="OHiHIztNZIgC2N3G7DZT-54" edge="1">
          <mxGeometry relative="1" as="geometry" />
        </mxCell>
        <mxCell id="OHiHIztNZIgC2N3G7DZT-52" value="PrintTips&lt;br&gt;parameter: commandSplit" style="shape=process;whiteSpace=wrap;html=1;backgroundOutline=1;" parent="WIyWlLk6GJQsqaUBKTNV-1" vertex="1">
          <mxGeometry x="330" y="40" width="120" height="60" as="geometry" />
        </mxCell>
        <mxCell id="OHiHIztNZIgC2N3G7DZT-57" value="" style="edgeStyle=orthogonalEdgeStyle;rounded=0;orthogonalLoop=1;jettySize=auto;html=1;entryX=0;entryY=0.5;entryDx=0;entryDy=0;exitX=0;exitY=0.5;exitDx=0;exitDy=0;" parent="WIyWlLk6GJQsqaUBKTNV-1" source="OHiHIztNZIgC2N3G7DZT-54" target="OHiHIztNZIgC2N3G7DZT-52" edge="1">
          <mxGeometry relative="1" as="geometry">
            <mxPoint x="580" y="210" as="targetPoint" />
          </mxGeometry>
        </mxCell>
        <mxCell id="OHiHIztNZIgC2N3G7DZT-59" value="False" style="edgeLabel;html=1;align=center;verticalAlign=middle;resizable=0;points=[];" parent="OHiHIztNZIgC2N3G7DZT-57" vertex="1" connectable="0">
          <mxGeometry x="-0.07" relative="1" as="geometry">
            <mxPoint as="offset" />
          </mxGeometry>
        </mxCell>
        <mxCell id="OHiHIztNZIgC2N3G7DZT-63" value="" style="edgeStyle=orthogonalEdgeStyle;rounded=0;orthogonalLoop=1;jettySize=auto;html=1;" parent="WIyWlLk6GJQsqaUBKTNV-1" source="OHiHIztNZIgC2N3G7DZT-54" target="OHiHIztNZIgC2N3G7DZT-62" edge="1">
          <mxGeometry relative="1" as="geometry" />
        </mxCell>
        <mxCell id="OHiHIztNZIgC2N3G7DZT-70" value="True" style="edgeLabel;html=1;align=center;verticalAlign=middle;resizable=0;points=[];" parent="OHiHIztNZIgC2N3G7DZT-63" vertex="1" connectable="0">
          <mxGeometry x="-0.0667" y="1" relative="1" as="geometry">
            <mxPoint as="offset" />
          </mxGeometry>
        </mxCell>
        <mxCell id="OHiHIztNZIgC2N3G7DZT-113" value="" style="edgeStyle=orthogonalEdgeStyle;rounded=0;orthogonalLoop=1;jettySize=auto;html=1;" parent="WIyWlLk6GJQsqaUBKTNV-1" source="OHiHIztNZIgC2N3G7DZT-54" target="OHiHIztNZIgC2N3G7DZT-112" edge="1">
          <mxGeometry relative="1" as="geometry" />
        </mxCell>
        <mxCell id="OHiHIztNZIgC2N3G7DZT-54" value="if commandSplit[0] is add" style="rhombus;whiteSpace=wrap;html=1;" parent="WIyWlLk6GJQsqaUBKTNV-1" vertex="1">
          <mxGeometry x="310" y="170" width="160" height="80" as="geometry" />
        </mxCell>
        <mxCell id="OHiHIztNZIgC2N3G7DZT-69" value="" style="edgeStyle=orthogonalEdgeStyle;rounded=0;orthogonalLoop=1;jettySize=auto;html=1;" parent="WIyWlLk6GJQsqaUBKTNV-1" source="OHiHIztNZIgC2N3G7DZT-62" target="OHiHIztNZIgC2N3G7DZT-68" edge="1">
          <mxGeometry relative="1" as="geometry" />
        </mxCell>
        <mxCell id="OHiHIztNZIgC2N3G7DZT-71" value="True" style="edgeLabel;html=1;align=center;verticalAlign=middle;resizable=0;points=[];" parent="OHiHIztNZIgC2N3G7DZT-69" vertex="1" connectable="0">
          <mxGeometry x="-0.1778" y="-2" relative="1" as="geometry">
            <mxPoint as="offset" />
          </mxGeometry>
        </mxCell>
        <mxCell id="OHiHIztNZIgC2N3G7DZT-76" style="edgeStyle=orthogonalEdgeStyle;rounded=0;orthogonalLoop=1;jettySize=auto;html=1;exitX=1;exitY=0.5;exitDx=0;exitDy=0;entryX=0;entryY=0.5;entryDx=0;entryDy=0;" parent="WIyWlLk6GJQsqaUBKTNV-1" source="OHiHIztNZIgC2N3G7DZT-62" target="OHiHIztNZIgC2N3G7DZT-74" edge="1">
          <mxGeometry relative="1" as="geometry" />
        </mxCell>
        <mxCell id="OHiHIztNZIgC2N3G7DZT-84" value="False" style="edgeLabel;html=1;align=center;verticalAlign=middle;resizable=0;points=[];" parent="OHiHIztNZIgC2N3G7DZT-76" vertex="1" connectable="0">
          <mxGeometry x="-0.1011" y="2" relative="1" as="geometry">
            <mxPoint as="offset" />
          </mxGeometry>
        </mxCell>
        <mxCell id="OHiHIztNZIgC2N3G7DZT-62" value="if commandSplit length = 2" style="rhombus;whiteSpace=wrap;html=1;" parent="WIyWlLk6GJQsqaUBKTNV-1" vertex="1">
          <mxGeometry x="590" y="170" width="80" height="80" as="geometry" />
        </mxCell>
        <mxCell id="OHiHIztNZIgC2N3G7DZT-111" style="edgeStyle=orthogonalEdgeStyle;rounded=0;orthogonalLoop=1;jettySize=auto;html=1;exitX=0.5;exitY=0;exitDx=0;exitDy=0;endArrow=none;endFill=0;" parent="WIyWlLk6GJQsqaUBKTNV-1" source="OHiHIztNZIgC2N3G7DZT-68" edge="1">
          <mxGeometry relative="1" as="geometry">
            <mxPoint x="810" y="9.999999999999773" as="targetPoint" />
            <Array as="points">
              <mxPoint x="630" y="10" />
            </Array>
          </mxGeometry>
        </mxCell>
        <mxCell id="OHiHIztNZIgC2N3G7DZT-68" value="Enter title" style="shape=parallelogram;perimeter=parallelogramPerimeter;whiteSpace=wrap;html=1;fixedSize=1;" parent="WIyWlLk6GJQsqaUBKTNV-1" vertex="1">
          <mxGeometry x="570" y="40" width="120" height="60" as="geometry" />
        </mxCell>
        <mxCell id="OHiHIztNZIgC2N3G7DZT-72" value="" style="edgeStyle=orthogonalEdgeStyle;rounded=0;orthogonalLoop=1;jettySize=auto;html=1;" parent="WIyWlLk6GJQsqaUBKTNV-1" source="OHiHIztNZIgC2N3G7DZT-74" target="OHiHIztNZIgC2N3G7DZT-75" edge="1">
          <mxGeometry relative="1" as="geometry" />
        </mxCell>
        <mxCell id="OHiHIztNZIgC2N3G7DZT-73" value="True" style="edgeLabel;html=1;align=center;verticalAlign=middle;resizable=0;points=[];" parent="OHiHIztNZIgC2N3G7DZT-72" vertex="1" connectable="0">
          <mxGeometry x="-0.1778" y="-2" relative="1" as="geometry">
            <mxPoint as="offset" />
          </mxGeometry>
        </mxCell>
        <mxCell id="OHiHIztNZIgC2N3G7DZT-85" style="edgeStyle=orthogonalEdgeStyle;rounded=0;orthogonalLoop=1;jettySize=auto;html=1;exitX=1;exitY=0.5;exitDx=0;exitDy=0;entryX=0;entryY=0.5;entryDx=0;entryDy=0;" parent="WIyWlLk6GJQsqaUBKTNV-1" source="OHiHIztNZIgC2N3G7DZT-74" target="OHiHIztNZIgC2N3G7DZT-82" edge="1">
          <mxGeometry relative="1" as="geometry" />
        </mxCell>
        <mxCell id="OHiHIztNZIgC2N3G7DZT-86" value="False" style="edgeLabel;html=1;align=center;verticalAlign=middle;resizable=0;points=[];" parent="OHiHIztNZIgC2N3G7DZT-85" vertex="1" connectable="0">
          <mxGeometry x="0.1808" relative="1" as="geometry">
            <mxPoint as="offset" />
          </mxGeometry>
        </mxCell>
        <mxCell id="OHiHIztNZIgC2N3G7DZT-74" value="if commandSplit length = 3" style="rhombus;whiteSpace=wrap;html=1;" parent="WIyWlLk6GJQsqaUBKTNV-1" vertex="1">
          <mxGeometry x="770" y="170" width="80" height="80" as="geometry" />
        </mxCell>
        <mxCell id="OHiHIztNZIgC2N3G7DZT-110" style="edgeStyle=orthogonalEdgeStyle;rounded=0;orthogonalLoop=1;jettySize=auto;html=1;exitX=0.5;exitY=0;exitDx=0;exitDy=0;endArrow=none;endFill=0;" parent="WIyWlLk6GJQsqaUBKTNV-1" source="OHiHIztNZIgC2N3G7DZT-75" edge="1">
          <mxGeometry relative="1" as="geometry">
            <mxPoint x="1000" y="9.999999999999773" as="targetPoint" />
            <Array as="points">
              <mxPoint x="810" y="10" />
            </Array>
          </mxGeometry>
        </mxCell>
        <mxCell id="OHiHIztNZIgC2N3G7DZT-75" value="Enter author" style="shape=parallelogram;perimeter=parallelogramPerimeter;whiteSpace=wrap;html=1;fixedSize=1;" parent="WIyWlLk6GJQsqaUBKTNV-1" vertex="1">
          <mxGeometry x="750" y="40" width="120" height="60" as="geometry" />
        </mxCell>
        <mxCell id="OHiHIztNZIgC2N3G7DZT-80" value="" style="edgeStyle=orthogonalEdgeStyle;rounded=0;orthogonalLoop=1;jettySize=auto;html=1;" parent="WIyWlLk6GJQsqaUBKTNV-1" source="OHiHIztNZIgC2N3G7DZT-82" target="OHiHIztNZIgC2N3G7DZT-83" edge="1">
          <mxGeometry relative="1" as="geometry" />
        </mxCell>
        <mxCell id="OHiHIztNZIgC2N3G7DZT-81" value="True" style="edgeLabel;html=1;align=center;verticalAlign=middle;resizable=0;points=[];" parent="OHiHIztNZIgC2N3G7DZT-80" vertex="1" connectable="0">
          <mxGeometry x="-0.1778" y="-2" relative="1" as="geometry">
            <mxPoint as="offset" />
          </mxGeometry>
        </mxCell>
        <mxCell id="OHiHIztNZIgC2N3G7DZT-82" value="if commandSplit length = 4" style="rhombus;whiteSpace=wrap;html=1;" parent="WIyWlLk6GJQsqaUBKTNV-1" vertex="1">
          <mxGeometry x="960" y="170" width="80" height="80" as="geometry" />
        </mxCell>
        <mxCell id="OHiHIztNZIgC2N3G7DZT-109" style="edgeStyle=orthogonalEdgeStyle;rounded=0;orthogonalLoop=1;jettySize=auto;html=1;exitX=0.5;exitY=0;exitDx=0;exitDy=0;endArrow=none;endFill=0;" parent="WIyWlLk6GJQsqaUBKTNV-1" source="OHiHIztNZIgC2N3G7DZT-83" edge="1">
          <mxGeometry relative="1" as="geometry">
            <mxPoint x="1190" y="9.999999999999773" as="targetPoint" />
            <Array as="points">
              <mxPoint x="1000" y="10" />
            </Array>
          </mxGeometry>
        </mxCell>
        <mxCell id="OHiHIztNZIgC2N3G7DZT-83" value="Enter genre" style="shape=parallelogram;perimeter=parallelogramPerimeter;whiteSpace=wrap;html=1;fixedSize=1;" parent="WIyWlLk6GJQsqaUBKTNV-1" vertex="1">
          <mxGeometry x="940" y="40" width="120" height="60" as="geometry" />
        </mxCell>
        <mxCell id="OHiHIztNZIgC2N3G7DZT-87" style="edgeStyle=orthogonalEdgeStyle;rounded=0;orthogonalLoop=1;jettySize=auto;html=1;exitX=1;exitY=0.5;exitDx=0;exitDy=0;entryX=0;entryY=0.5;entryDx=0;entryDy=0;" parent="WIyWlLk6GJQsqaUBKTNV-1" target="OHiHIztNZIgC2N3G7DZT-91" edge="1">
          <mxGeometry relative="1" as="geometry">
            <mxPoint x="1040" y="210" as="sourcePoint" />
          </mxGeometry>
        </mxCell>
        <mxCell id="OHiHIztNZIgC2N3G7DZT-88" value="False" style="edgeLabel;html=1;align=center;verticalAlign=middle;resizable=0;points=[];" parent="OHiHIztNZIgC2N3G7DZT-87" vertex="1" connectable="0">
          <mxGeometry x="0.1808" relative="1" as="geometry">
            <mxPoint as="offset" />
          </mxGeometry>
        </mxCell>
        <mxCell id="OHiHIztNZIgC2N3G7DZT-89" value="" style="edgeStyle=orthogonalEdgeStyle;rounded=0;orthogonalLoop=1;jettySize=auto;html=1;" parent="WIyWlLk6GJQsqaUBKTNV-1" source="OHiHIztNZIgC2N3G7DZT-91" target="OHiHIztNZIgC2N3G7DZT-92" edge="1">
          <mxGeometry relative="1" as="geometry" />
        </mxCell>
        <mxCell id="OHiHIztNZIgC2N3G7DZT-90" value="True" style="edgeLabel;html=1;align=center;verticalAlign=middle;resizable=0;points=[];" parent="OHiHIztNZIgC2N3G7DZT-89" vertex="1" connectable="0">
          <mxGeometry x="-0.1778" y="-2" relative="1" as="geometry">
            <mxPoint as="offset" />
          </mxGeometry>
        </mxCell>
        <mxCell id="OHiHIztNZIgC2N3G7DZT-91" value="if commandSplit length = 5" style="rhombus;whiteSpace=wrap;html=1;" parent="WIyWlLk6GJQsqaUBKTNV-1" vertex="1">
          <mxGeometry x="1150" y="170" width="80" height="80" as="geometry" />
        </mxCell>
        <mxCell id="OHiHIztNZIgC2N3G7DZT-108" style="edgeStyle=orthogonalEdgeStyle;rounded=0;orthogonalLoop=1;jettySize=auto;html=1;exitX=0.5;exitY=0;exitDx=0;exitDy=0;endArrow=none;endFill=0;" parent="WIyWlLk6GJQsqaUBKTNV-1" source="OHiHIztNZIgC2N3G7DZT-92" edge="1">
          <mxGeometry relative="1" as="geometry">
            <mxPoint x="1380" y="9.999999999999773" as="targetPoint" />
            <Array as="points">
              <mxPoint x="1190" y="10" />
            </Array>
          </mxGeometry>
        </mxCell>
        <mxCell id="OHiHIztNZIgC2N3G7DZT-92" value="Enter description" style="shape=parallelogram;perimeter=parallelogramPerimeter;whiteSpace=wrap;html=1;fixedSize=1;" parent="WIyWlLk6GJQsqaUBKTNV-1" vertex="1">
          <mxGeometry x="1130" y="40" width="120" height="60" as="geometry" />
        </mxCell>
        <mxCell id="OHiHIztNZIgC2N3G7DZT-93" style="edgeStyle=orthogonalEdgeStyle;rounded=0;orthogonalLoop=1;jettySize=auto;html=1;exitX=1;exitY=0.5;exitDx=0;exitDy=0;entryX=0;entryY=0.5;entryDx=0;entryDy=0;" parent="WIyWlLk6GJQsqaUBKTNV-1" target="OHiHIztNZIgC2N3G7DZT-97" edge="1">
          <mxGeometry relative="1" as="geometry">
            <mxPoint x="1230" y="210" as="sourcePoint" />
          </mxGeometry>
        </mxCell>
        <mxCell id="OHiHIztNZIgC2N3G7DZT-94" value="False" style="edgeLabel;html=1;align=center;verticalAlign=middle;resizable=0;points=[];" parent="OHiHIztNZIgC2N3G7DZT-93" vertex="1" connectable="0">
          <mxGeometry x="0.1808" relative="1" as="geometry">
            <mxPoint as="offset" />
          </mxGeometry>
        </mxCell>
        <mxCell id="OHiHIztNZIgC2N3G7DZT-95" value="" style="edgeStyle=orthogonalEdgeStyle;rounded=0;orthogonalLoop=1;jettySize=auto;html=1;" parent="WIyWlLk6GJQsqaUBKTNV-1" source="OHiHIztNZIgC2N3G7DZT-97" target="OHiHIztNZIgC2N3G7DZT-98" edge="1">
          <mxGeometry relative="1" as="geometry" />
        </mxCell>
        <mxCell id="OHiHIztNZIgC2N3G7DZT-96" value="True" style="edgeLabel;html=1;align=center;verticalAlign=middle;resizable=0;points=[];" parent="OHiHIztNZIgC2N3G7DZT-95" vertex="1" connectable="0">
          <mxGeometry x="-0.1778" y="-2" relative="1" as="geometry">
            <mxPoint as="offset" />
          </mxGeometry>
        </mxCell>
        <mxCell id="OHiHIztNZIgC2N3G7DZT-97" value="if commandSplit length = 6" style="rhombus;whiteSpace=wrap;html=1;" parent="WIyWlLk6GJQsqaUBKTNV-1" vertex="1">
          <mxGeometry x="1340" y="170" width="80" height="80" as="geometry" />
        </mxCell>
        <mxCell id="OHiHIztNZIgC2N3G7DZT-107" style="edgeStyle=orthogonalEdgeStyle;rounded=0;orthogonalLoop=1;jettySize=auto;html=1;exitX=0.5;exitY=0;exitDx=0;exitDy=0;endArrow=none;endFill=0;" parent="WIyWlLk6GJQsqaUBKTNV-1" source="OHiHIztNZIgC2N3G7DZT-98" edge="1">
          <mxGeometry relative="1" as="geometry">
            <mxPoint x="1570" y="9.999999999999773" as="targetPoint" />
            <Array as="points">
              <mxPoint x="1380" y="10" />
            </Array>
          </mxGeometry>
        </mxCell>
        <mxCell id="OHiHIztNZIgC2N3G7DZT-98" value="Enter pages" style="shape=parallelogram;perimeter=parallelogramPerimeter;whiteSpace=wrap;html=1;fixedSize=1;" parent="WIyWlLk6GJQsqaUBKTNV-1" vertex="1">
          <mxGeometry x="1320" y="40" width="120" height="60" as="geometry" />
        </mxCell>
        <mxCell id="OHiHIztNZIgC2N3G7DZT-99" style="edgeStyle=orthogonalEdgeStyle;rounded=0;orthogonalLoop=1;jettySize=auto;html=1;exitX=1;exitY=0.5;exitDx=0;exitDy=0;entryX=0;entryY=0.5;entryDx=0;entryDy=0;" parent="WIyWlLk6GJQsqaUBKTNV-1" target="OHiHIztNZIgC2N3G7DZT-103" edge="1">
          <mxGeometry relative="1" as="geometry">
            <mxPoint x="1420" y="210" as="sourcePoint" />
          </mxGeometry>
        </mxCell>
        <mxCell id="OHiHIztNZIgC2N3G7DZT-100" value="False" style="edgeLabel;html=1;align=center;verticalAlign=middle;resizable=0;points=[];" parent="OHiHIztNZIgC2N3G7DZT-99" vertex="1" connectable="0">
          <mxGeometry x="0.1808" relative="1" as="geometry">
            <mxPoint as="offset" />
          </mxGeometry>
        </mxCell>
        <mxCell id="OHiHIztNZIgC2N3G7DZT-101" value="" style="edgeStyle=orthogonalEdgeStyle;rounded=0;orthogonalLoop=1;jettySize=auto;html=1;" parent="WIyWlLk6GJQsqaUBKTNV-1" source="OHiHIztNZIgC2N3G7DZT-103" target="OHiHIztNZIgC2N3G7DZT-104" edge="1">
          <mxGeometry relative="1" as="geometry" />
        </mxCell>
        <mxCell id="OHiHIztNZIgC2N3G7DZT-102" value="True" style="edgeLabel;html=1;align=center;verticalAlign=middle;resizable=0;points=[];" parent="OHiHIztNZIgC2N3G7DZT-101" vertex="1" connectable="0">
          <mxGeometry x="-0.1778" y="-2" relative="1" as="geometry">
            <mxPoint as="offset" />
          </mxGeometry>
        </mxCell>
        <mxCell id="OHiHIztNZIgC2N3G7DZT-103" value="if commandSplit length = 7" style="rhombus;whiteSpace=wrap;html=1;" parent="WIyWlLk6GJQsqaUBKTNV-1" vertex="1">
          <mxGeometry x="1530" y="170" width="80" height="80" as="geometry" />
        </mxCell>
        <mxCell id="OHiHIztNZIgC2N3G7DZT-106" style="edgeStyle=orthogonalEdgeStyle;rounded=0;orthogonalLoop=1;jettySize=auto;html=1;exitX=0.5;exitY=0;exitDx=0;exitDy=0;entryX=0;entryY=0.5;entryDx=0;entryDy=0;" parent="WIyWlLk6GJQsqaUBKTNV-1" source="OHiHIztNZIgC2N3G7DZT-104" target="OHiHIztNZIgC2N3G7DZT-105" edge="1">
          <mxGeometry relative="1" as="geometry" />
        </mxCell>
        <mxCell id="OHiHIztNZIgC2N3G7DZT-104" value="Enter tags" style="shape=parallelogram;perimeter=parallelogramPerimeter;whiteSpace=wrap;html=1;fixedSize=1;" parent="WIyWlLk6GJQsqaUBKTNV-1" vertex="1">
          <mxGeometry x="1510" y="40" width="120" height="60" as="geometry" />
        </mxCell>
        <mxCell id="OHiHIztNZIgC2N3G7DZT-105" value="End" style="rounded=1;whiteSpace=wrap;html=1;arcSize=50;" parent="WIyWlLk6GJQsqaUBKTNV-1" vertex="1">
          <mxGeometry x="1710" y="-20" width="120" height="60" as="geometry" />
        </mxCell>
        <mxCell id="OHiHIztNZIgC2N3G7DZT-128" style="edgeStyle=orthogonalEdgeStyle;rounded=0;orthogonalLoop=1;jettySize=auto;html=1;exitX=1;exitY=0.5;exitDx=0;exitDy=0;entryX=0;entryY=0.5;entryDx=0;entryDy=0;" parent="WIyWlLk6GJQsqaUBKTNV-1" source="OHiHIztNZIgC2N3G7DZT-112" target="OHiHIztNZIgC2N3G7DZT-118" edge="1">
          <mxGeometry relative="1" as="geometry" />
        </mxCell>
        <mxCell id="OHiHIztNZIgC2N3G7DZT-112" value="if commandSplit[1] is remove or print" style="rhombus;whiteSpace=wrap;html=1;" parent="WIyWlLk6GJQsqaUBKTNV-1" vertex="1">
          <mxGeometry x="310" y="460" width="160" height="80" as="geometry" />
        </mxCell>
        <mxCell id="OHiHIztNZIgC2N3G7DZT-114" value="" style="edgeStyle=orthogonalEdgeStyle;rounded=0;orthogonalLoop=1;jettySize=auto;html=1;" parent="WIyWlLk6GJQsqaUBKTNV-1" source="OHiHIztNZIgC2N3G7DZT-118" target="OHiHIztNZIgC2N3G7DZT-120" edge="1">
          <mxGeometry relative="1" as="geometry" />
        </mxCell>
        <mxCell id="OHiHIztNZIgC2N3G7DZT-115" value="True" style="edgeLabel;html=1;align=center;verticalAlign=middle;resizable=0;points=[];" parent="OHiHIztNZIgC2N3G7DZT-114" vertex="1" connectable="0">
          <mxGeometry x="-0.1778" y="-2" relative="1" as="geometry">
            <mxPoint as="offset" />
          </mxGeometry>
        </mxCell>
        <mxCell id="OHiHIztNZIgC2N3G7DZT-116" style="edgeStyle=orthogonalEdgeStyle;rounded=0;orthogonalLoop=1;jettySize=auto;html=1;exitX=1;exitY=0.5;exitDx=0;exitDy=0;entryX=0;entryY=0.5;entryDx=0;entryDy=0;" parent="WIyWlLk6GJQsqaUBKTNV-1" source="OHiHIztNZIgC2N3G7DZT-118" target="OHiHIztNZIgC2N3G7DZT-123" edge="1">
          <mxGeometry relative="1" as="geometry" />
        </mxCell>
        <mxCell id="OHiHIztNZIgC2N3G7DZT-117" value="False" style="edgeLabel;html=1;align=center;verticalAlign=middle;resizable=0;points=[];" parent="OHiHIztNZIgC2N3G7DZT-116" vertex="1" connectable="0">
          <mxGeometry x="-0.1011" y="2" relative="1" as="geometry">
            <mxPoint as="offset" />
          </mxGeometry>
        </mxCell>
        <mxCell id="OHiHIztNZIgC2N3G7DZT-118" value="if commandSplit length = 2" style="rhombus;whiteSpace=wrap;html=1;" parent="WIyWlLk6GJQsqaUBKTNV-1" vertex="1">
          <mxGeometry x="590" y="460" width="80" height="80" as="geometry" />
        </mxCell>
        <mxCell id="OHiHIztNZIgC2N3G7DZT-119" style="edgeStyle=orthogonalEdgeStyle;rounded=0;orthogonalLoop=1;jettySize=auto;html=1;exitX=0.5;exitY=0;exitDx=0;exitDy=0;endArrow=none;endFill=0;" parent="WIyWlLk6GJQsqaUBKTNV-1" source="OHiHIztNZIgC2N3G7DZT-120" edge="1">
          <mxGeometry relative="1" as="geometry">
            <mxPoint x="810" y="299.9999999999998" as="targetPoint" />
            <Array as="points">
              <mxPoint x="630" y="300" />
            </Array>
          </mxGeometry>
        </mxCell>
        <mxCell id="OHiHIztNZIgC2N3G7DZT-120" value="Enter title" style="shape=parallelogram;perimeter=parallelogramPerimeter;whiteSpace=wrap;html=1;fixedSize=1;" parent="WIyWlLk6GJQsqaUBKTNV-1" vertex="1">
          <mxGeometry x="570" y="330" width="120" height="60" as="geometry" />
        </mxCell>
        <mxCell id="OHiHIztNZIgC2N3G7DZT-121" value="" style="edgeStyle=orthogonalEdgeStyle;rounded=0;orthogonalLoop=1;jettySize=auto;html=1;" parent="WIyWlLk6GJQsqaUBKTNV-1" source="OHiHIztNZIgC2N3G7DZT-123" target="OHiHIztNZIgC2N3G7DZT-124" edge="1">
          <mxGeometry relative="1" as="geometry" />
        </mxCell>
        <mxCell id="OHiHIztNZIgC2N3G7DZT-122" value="True" style="edgeLabel;html=1;align=center;verticalAlign=middle;resizable=0;points=[];" parent="OHiHIztNZIgC2N3G7DZT-121" vertex="1" connectable="0">
          <mxGeometry x="-0.1778" y="-2" relative="1" as="geometry">
            <mxPoint as="offset" />
          </mxGeometry>
        </mxCell>
        <mxCell id="OHiHIztNZIgC2N3G7DZT-123" value="if commandSplit length = 3" style="rhombus;whiteSpace=wrap;html=1;" parent="WIyWlLk6GJQsqaUBKTNV-1" vertex="1">
          <mxGeometry x="770" y="460" width="80" height="80" as="geometry" />
        </mxCell>
        <mxCell id="OHiHIztNZIgC2N3G7DZT-130" style="edgeStyle=orthogonalEdgeStyle;rounded=0;orthogonalLoop=1;jettySize=auto;html=1;exitX=0.5;exitY=0;exitDx=0;exitDy=0;entryX=0;entryY=0.5;entryDx=0;entryDy=0;" parent="WIyWlLk6GJQsqaUBKTNV-1" source="OHiHIztNZIgC2N3G7DZT-124" target="OHiHIztNZIgC2N3G7DZT-129" edge="1">
          <mxGeometry relative="1" as="geometry" />
        </mxCell>
        <mxCell id="OHiHIztNZIgC2N3G7DZT-124" value="Enter author" style="shape=parallelogram;perimeter=parallelogramPerimeter;whiteSpace=wrap;html=1;fixedSize=1;" parent="WIyWlLk6GJQsqaUBKTNV-1" vertex="1">
          <mxGeometry x="750" y="330" width="120" height="60" as="geometry" />
        </mxCell>
        <mxCell id="OHiHIztNZIgC2N3G7DZT-129" value="End" style="rounded=1;whiteSpace=wrap;html=1;arcSize=50;" parent="WIyWlLk6GJQsqaUBKTNV-1" vertex="1">
          <mxGeometry x="900" y="270" width="120" height="60" as="geometry" />
        </mxCell>
        <mxCell id="eov9HGmVExsTuuHEF0Pq-16" value="" style="edgeStyle=orthogonalEdgeStyle;rounded=0;orthogonalLoop=1;jettySize=auto;html=1;" edge="1" parent="WIyWlLk6GJQsqaUBKTNV-1" target="eov9HGmVExsTuuHEF0Pq-18">
          <mxGeometry relative="1" as="geometry">
            <mxPoint x="390" y="540" as="sourcePoint" />
          </mxGeometry>
        </mxCell>
        <mxCell id="eov9HGmVExsTuuHEF0Pq-17" style="edgeStyle=orthogonalEdgeStyle;rounded=0;orthogonalLoop=1;jettySize=auto;html=1;exitX=1;exitY=0.5;exitDx=0;exitDy=0;entryX=0;entryY=0.5;entryDx=0;entryDy=0;" edge="1" parent="WIyWlLk6GJQsqaUBKTNV-1" source="eov9HGmVExsTuuHEF0Pq-18" target="eov9HGmVExsTuuHEF0Pq-23">
          <mxGeometry relative="1" as="geometry" />
        </mxCell>
        <mxCell id="eov9HGmVExsTuuHEF0Pq-18" value="if commandSplit[1] is edit" style="rhombus;whiteSpace=wrap;html=1;" vertex="1" parent="WIyWlLk6GJQsqaUBKTNV-1">
          <mxGeometry x="310" y="750" width="160" height="80" as="geometry" />
        </mxCell>
        <mxCell id="eov9HGmVExsTuuHEF0Pq-19" value="" style="edgeStyle=orthogonalEdgeStyle;rounded=0;orthogonalLoop=1;jettySize=auto;html=1;" edge="1" parent="WIyWlLk6GJQsqaUBKTNV-1" source="eov9HGmVExsTuuHEF0Pq-23" target="eov9HGmVExsTuuHEF0Pq-25">
          <mxGeometry relative="1" as="geometry" />
        </mxCell>
        <mxCell id="eov9HGmVExsTuuHEF0Pq-20" value="True" style="edgeLabel;html=1;align=center;verticalAlign=middle;resizable=0;points=[];" vertex="1" connectable="0" parent="eov9HGmVExsTuuHEF0Pq-19">
          <mxGeometry x="-0.1778" y="-2" relative="1" as="geometry">
            <mxPoint as="offset" />
          </mxGeometry>
        </mxCell>
        <mxCell id="eov9HGmVExsTuuHEF0Pq-21" style="edgeStyle=orthogonalEdgeStyle;rounded=0;orthogonalLoop=1;jettySize=auto;html=1;exitX=1;exitY=0.5;exitDx=0;exitDy=0;entryX=0;entryY=0.5;entryDx=0;entryDy=0;" edge="1" parent="WIyWlLk6GJQsqaUBKTNV-1" source="eov9HGmVExsTuuHEF0Pq-23" target="eov9HGmVExsTuuHEF0Pq-28">
          <mxGeometry relative="1" as="geometry" />
        </mxCell>
        <mxCell id="eov9HGmVExsTuuHEF0Pq-22" value="False" style="edgeLabel;html=1;align=center;verticalAlign=middle;resizable=0;points=[];" vertex="1" connectable="0" parent="eov9HGmVExsTuuHEF0Pq-21">
          <mxGeometry x="-0.1011" y="2" relative="1" as="geometry">
            <mxPoint as="offset" />
          </mxGeometry>
        </mxCell>
        <mxCell id="eov9HGmVExsTuuHEF0Pq-23" value="if commandSplit length = 2" style="rhombus;whiteSpace=wrap;html=1;" vertex="1" parent="WIyWlLk6GJQsqaUBKTNV-1">
          <mxGeometry x="590" y="750" width="80" height="80" as="geometry" />
        </mxCell>
        <mxCell id="eov9HGmVExsTuuHEF0Pq-24" style="edgeStyle=orthogonalEdgeStyle;rounded=0;orthogonalLoop=1;jettySize=auto;html=1;exitX=0.5;exitY=0;exitDx=0;exitDy=0;endArrow=none;endFill=0;" edge="1" parent="WIyWlLk6GJQsqaUBKTNV-1" source="eov9HGmVExsTuuHEF0Pq-25">
          <mxGeometry relative="1" as="geometry">
            <mxPoint x="810" y="589.9999999999998" as="targetPoint" />
            <Array as="points">
              <mxPoint x="630" y="590" />
            </Array>
          </mxGeometry>
        </mxCell>
        <mxCell id="eov9HGmVExsTuuHEF0Pq-25" value="Enter title" style="shape=parallelogram;perimeter=parallelogramPerimeter;whiteSpace=wrap;html=1;fixedSize=1;" vertex="1" parent="WIyWlLk6GJQsqaUBKTNV-1">
          <mxGeometry x="570" y="620" width="120" height="60" as="geometry" />
        </mxCell>
        <mxCell id="eov9HGmVExsTuuHEF0Pq-26" value="" style="edgeStyle=orthogonalEdgeStyle;rounded=0;orthogonalLoop=1;jettySize=auto;html=1;" edge="1" parent="WIyWlLk6GJQsqaUBKTNV-1" source="eov9HGmVExsTuuHEF0Pq-28" target="eov9HGmVExsTuuHEF0Pq-30">
          <mxGeometry relative="1" as="geometry" />
        </mxCell>
        <mxCell id="eov9HGmVExsTuuHEF0Pq-27" value="True" style="edgeLabel;html=1;align=center;verticalAlign=middle;resizable=0;points=[];" vertex="1" connectable="0" parent="eov9HGmVExsTuuHEF0Pq-26">
          <mxGeometry x="-0.1778" y="-2" relative="1" as="geometry">
            <mxPoint as="offset" />
          </mxGeometry>
        </mxCell>
        <mxCell id="eov9HGmVExsTuuHEF0Pq-28" value="if commandSplit length = 3" style="rhombus;whiteSpace=wrap;html=1;" vertex="1" parent="WIyWlLk6GJQsqaUBKTNV-1">
          <mxGeometry x="770" y="750" width="80" height="80" as="geometry" />
        </mxCell>
        <mxCell id="eov9HGmVExsTuuHEF0Pq-29" style="edgeStyle=orthogonalEdgeStyle;rounded=0;orthogonalLoop=1;jettySize=auto;html=1;exitX=0.5;exitY=0;exitDx=0;exitDy=0;endArrow=none;endFill=0;" edge="1" parent="WIyWlLk6GJQsqaUBKTNV-1" source="eov9HGmVExsTuuHEF0Pq-30">
          <mxGeometry relative="1" as="geometry">
            <mxPoint x="990" y="590" as="targetPoint" />
            <Array as="points">
              <mxPoint x="810" y="590" />
            </Array>
          </mxGeometry>
        </mxCell>
        <mxCell id="eov9HGmVExsTuuHEF0Pq-30" value="Enter author" style="shape=parallelogram;perimeter=parallelogramPerimeter;whiteSpace=wrap;html=1;fixedSize=1;" vertex="1" parent="WIyWlLk6GJQsqaUBKTNV-1">
          <mxGeometry x="750" y="620" width="120" height="60" as="geometry" />
        </mxCell>
        <mxCell id="eov9HGmVExsTuuHEF0Pq-31" value="End" style="rounded=1;whiteSpace=wrap;html=1;arcSize=50;" vertex="1" parent="WIyWlLk6GJQsqaUBKTNV-1">
          <mxGeometry x="1090" y="560" width="120" height="60" as="geometry" />
        </mxCell>
        <mxCell id="eov9HGmVExsTuuHEF0Pq-32" style="edgeStyle=orthogonalEdgeStyle;rounded=0;orthogonalLoop=1;jettySize=auto;html=1;exitX=1;exitY=0.5;exitDx=0;exitDy=0;entryX=0;entryY=0.5;entryDx=0;entryDy=0;" edge="1" parent="WIyWlLk6GJQsqaUBKTNV-1" target="eov9HGmVExsTuuHEF0Pq-36">
          <mxGeometry relative="1" as="geometry">
            <mxPoint x="850" y="790" as="sourcePoint" />
          </mxGeometry>
        </mxCell>
        <mxCell id="eov9HGmVExsTuuHEF0Pq-33" value="False" style="edgeLabel;html=1;align=center;verticalAlign=middle;resizable=0;points=[];" vertex="1" connectable="0" parent="eov9HGmVExsTuuHEF0Pq-32">
          <mxGeometry x="-0.1011" y="2" relative="1" as="geometry">
            <mxPoint as="offset" />
          </mxGeometry>
        </mxCell>
        <mxCell id="eov9HGmVExsTuuHEF0Pq-34" value="" style="edgeStyle=orthogonalEdgeStyle;rounded=0;orthogonalLoop=1;jettySize=auto;html=1;" edge="1" parent="WIyWlLk6GJQsqaUBKTNV-1" source="eov9HGmVExsTuuHEF0Pq-36" target="eov9HGmVExsTuuHEF0Pq-37">
          <mxGeometry relative="1" as="geometry" />
        </mxCell>
        <mxCell id="eov9HGmVExsTuuHEF0Pq-35" value="True" style="edgeLabel;html=1;align=center;verticalAlign=middle;resizable=0;points=[];" vertex="1" connectable="0" parent="eov9HGmVExsTuuHEF0Pq-34">
          <mxGeometry x="-0.1778" y="-2" relative="1" as="geometry">
            <mxPoint as="offset" />
          </mxGeometry>
        </mxCell>
        <mxCell id="eov9HGmVExsTuuHEF0Pq-36" value="if commandSplit length = 4" style="rhombus;whiteSpace=wrap;html=1;" vertex="1" parent="WIyWlLk6GJQsqaUBKTNV-1">
          <mxGeometry x="950" y="750" width="80" height="80" as="geometry" />
        </mxCell>
        <mxCell id="eov9HGmVExsTuuHEF0Pq-38" style="edgeStyle=orthogonalEdgeStyle;rounded=0;orthogonalLoop=1;jettySize=auto;html=1;exitX=0.5;exitY=0;exitDx=0;exitDy=0;entryX=0;entryY=0.5;entryDx=0;entryDy=0;" edge="1" parent="WIyWlLk6GJQsqaUBKTNV-1" source="eov9HGmVExsTuuHEF0Pq-37" target="eov9HGmVExsTuuHEF0Pq-31">
          <mxGeometry relative="1" as="geometry">
            <mxPoint x="1280" y="610" as="targetPoint" />
          </mxGeometry>
        </mxCell>
        <mxCell id="eov9HGmVExsTuuHEF0Pq-37" value="Enter property(s)" style="shape=parallelogram;perimeter=parallelogramPerimeter;whiteSpace=wrap;html=1;fixedSize=1;" vertex="1" parent="WIyWlLk6GJQsqaUBKTNV-1">
          <mxGeometry x="930" y="620" width="120" height="60" as="geometry" />
        </mxCell>
      </root>
    </mxGraphModel>
  </diagram>
</mxfile>
